# xmcd
#
# Track frame offsets:
#	150
#	12823
#	25276
#	41014
#	54659
#	65972
#	80517
#	96332
#	110195
#	122435
#	133765
#	146789
#
# Disc length: 2109 seconds
#
# Revision: 1
# Processed by: cddbd v1.5.2PL0 Copyright (c) Steve Scherf et al.
# Submitted via: audiograbber 1.83.01
#
DISCID=b2083b0c
DTITLE=Danny Shirley - The Pyramid Collection Disc 1
DYEAR=2005
DGENRE=Country
TTITLE0=Time Off For Bad Behavior
TTITLE1=Watching His Son Going Down
TTITLE2=Love And Let Love
TTITLE3=Whitewell Mine
TTITLE4=Daddy's Honky Tonk
TTITLE5=Yo-Yo
TTITLE6=Fractions
TTITLE7=Jack Daniels Daze
TTITLE8=Closing Time
TTITLE9=Fair To Partly Rowdy
TTITLE10=Crossroads
TTITLE11=Local Legend
EXTD=
EXTT0=
EXTT1=
EXTT2=
EXTT3=
EXTT4=
EXTT5=
EXTT6=
EXTT7=
EXTT8=
EXTT9=
EXTT10=
EXTT11=
PLAYORDER=
